<svg height="512" viewBox="0 0 64 64" width="512" xmlns="http://www.w3.org/2000/svg"><g id="Add_credit_card" data-name="Add credit card"><path d="m18 25v-1h-2v2h1a1 1 0 0 0 1-1z"/><path d="m51 42a9 9 0 1 0 9 9 9.011 9.011 0 0 0 -9-9zm4 10h-3v3a1 1 0 0 1 -2 0v-3h-3a1 1 0 0 1 0-2h3v-3a1 1 0 0 1 2 0v3h3a1 1 0 0 1 0 2z"/><path d="m30 40h8v2h-8z"/><path d="m11 26h3v-6h-3a1 1 0 0 0 -1 1v4a1 1 0 0 0 1 1z"/><path d="m18 21a1 1 0 0 0 -1-1h-1v2h2z"/><circle cx="13" cy="41" r="3"/><path d="m4 47a3 3 0 0 0 3 3h33.051a10.99 10.99 0 0 1 17.949-7.479v-25.521a3 3 0 0 0 -3-3h-48a3 3 0 0 0 -3 3zm42-15h-4v-2h4zm8 0h-4v-2h4zm-2-12h2v4h-2zm-4 0h2v4h-2zm-4 0h2v4h-2zm-4 0h2v4h-2zm0 19v4a1 1 0 0 1 -1 1h-10a1 1 0 0 1 -1-1v-4a1 1 0 0 1 1-1h10a1 1 0 0 1 1 1zm-6-7v-2h4v2zm2-12h2v4h-2zm-4 0h2v4h-2zm-6 10h4v2h-4zm-18-9a3 3 0 0 1 3-3h6a3 3 0 0 1 3 3v4a3 3 0 0 1 -3 3h-6a3 3 0 0 1 -3-3zm5 15a4.955 4.955 0 0 1 2.989 1.016 5 5 0 1 1 0 7.968 4.955 4.955 0 0 1 -2.989 1.016 5 5 0 0 1 0-10z"/><path d="m19 44a3 3 0 1 0 -1.68-5.47 4.826 4.826 0 0 1 0 4.94 2.98 2.98 0 0 0 1.68.53z"/></g></svg>