<svg id="Layer_5" enable-background="new 0 0 64 64" height="512" viewBox="0 0 64 64" width="512" xmlns="http://www.w3.org/2000/svg"><path d="m55.975 23.755c1.825-1.265 3.025-3.371 3.025-5.755 0-3.519-2.614-6.432-6-6.92v-10.08h-52v48h45v10.5c0 1.93 1.57 3.5 3.5 3.5.98 0 1.864-.407 2.5-1.058.636.651 1.52 1.058 2.5 1.058 1.93 0 3.5-1.57 3.5-3.5v-14.5h1c2.206 0 4-1.794 4-4v-7c0-4.663-2.921-8.647-7.025-10.245zm-.499 1.945-3.476 4.633-3.476-4.633c1.07-.45 2.244-.7 3.476-.7s2.406.25 3.476.7zm1.524-7.7c0 2.757-2.243 5-5 5s-5-2.243-5-5 2.243-5 5-5 5 2.243 5 5zm-6-15v6h-48v-6zm-48 44v-36h48v.08c-3.386.488-6 3.401-6 6.92 0 2.384 1.2 4.49 3.025 5.755-4.104 1.598-7.025 5.582-7.025 10.245v7c0 2.206 1.794 4 4 4h1v2zm58-6c0 1.103-.897 2-2 2h-1v-12h-2v28.5c0 .827-.673 1.5-1.5 1.5s-1.5-.673-1.5-1.5v-19.5h-2v19.5c0 .827-.673 1.5-1.5 1.5s-1.5-.673-1.5-1.5v-28.5h-2v12h-1c-1.103 0-2-.897-2-2v-7c0-3.011 1.491-5.674 3.768-7.309l5.232 6.976 5.232-6.976c2.277 1.635 3.768 4.298 3.768 7.309z"/><path d="m5 5h2v2h-2z"/><path d="m9 5h2v2h-2z"/><path d="m13 5h2v2h-2z"/><path d="m5 45h34v-22h-34zm2-20h30v18h-30z"/><path d="m9 41h12v-14h-12zm2-12h8v10h-8z"/><path d="m23 27h12v2h-12z"/><path d="m23 31h12v2h-12z"/><path d="m23 35h12v2h-12z"/><path d="m23 39h12v2h-12z"/><path d="m5 13h2v2h-2z"/><path d="m9 13h18v2h-18z"/><path d="m5 17h22v2h-22z"/></svg>