<svg id="Layer_3" enable-background="new 0 0 64 64" height="512" viewBox="0 0 64 64" width="512" xmlns="http://www.w3.org/2000/svg"><g><path d="m53 3h-11v-1c0-.552-.447-1-1-1h-18c-.553 0-1 .448-1 1v1h-11c-1.654 0-3 1.346-3 3v54c0 1.654 1.346 3 3 3h42c1.654 0 3-1.346 3-3v-54c0-1.654-1.346-3-3-3zm-29 0h16v6h-16zm17 8c.553 0 1-.448 1-1v-1h8v36h-11c-.553 0-1 .447-1 1v11h-24v-48h8v1c0 .552.447 1 1 1zm7.586 36-8.586 8.586v-8.586zm5.414 13c0 .552-.448 1-1 1h-42c-.552 0-1-.448-1-1v-54c0-.551.448-1 1-1h11v2h-9c-.553 0-1 .448-1 1v50c0 .553.447 1 1 1h26c.277 0 .527-.113.708-.294l11.997-11.997c.182-.182.295-.432.295-.709v-38c0-.552-.447-1-1-1h-9v-2h11c.552 0 1 .449 1 1z"/><path d="m17 13c-.553 0-1 .448-1 1v8c0 .552.447 1 1 1h8c.553 0 1-.448 1-1v-7.586l1.707-1.707-1.414-1.414-1.707 1.707zm7 8h-6v-6h4.586l-3.293 3.293 1.414 1.414 3.293-3.293z"/><path d="m24.586 25h-7.586c-.553 0-1 .448-1 1v8c0 .553.447 1 1 1h8c.553 0 1-.447 1-1v-7.586l1.707-1.707-1.414-1.414zm-.586 8h-6v-6h4.586l-3.293 3.293 1.414 1.414 3.293-3.293z"/><path d="m26.293 35.293-1.707 1.707h-7.586c-.553 0-1 .447-1 1v8c0 .553.447 1 1 1h8c.553 0 1-.447 1-1v-7.586l1.707-1.707zm-2.293 9.707h-6v-6h4.586l-3.293 3.293 1.414 1.414 3.293-3.293z"/><path d="m28 13h2v2h-2z"/><path d="m32 13h16v2h-16z"/><path d="m46 17h2v2h-2z"/><path d="m28 17h16v2h-16z"/><path d="m28 25h2v2h-2z"/><path d="m32 25h16v2h-16z"/><path d="m46 29h2v2h-2z"/><path d="m28 29h16v2h-16z"/><path d="m28 37h2v2h-2z"/><path d="m32 37h16v2h-16z"/><path d="m46 41h2v2h-2z"/><path d="m28 41h16v2h-16z"/></g></svg>