<svg height="448pt" viewBox="0 0 448 448.03329" width="448pt" xmlns="http://www.w3.org/2000/svg"><path d="m64.015625 336.035156h48v48h-48zm0 0"/><path d="m66.359375 261.6875 11.3125-11.308594 10.34375 10.34375 20.6875-20.6875h-44.6875v48h48v-28.691406l-24 24zm0 0"/><path d="m131.457031 32.035156h-27.441406v48h144v-48h-27.4375c-10.007813-.117187-18.828125-6.585937-21.953125-16.089844-3.40625-9.5625-12.457031-15.945312-22.609375-15.945312-10.148437 0-19.199219 6.382812-22.605469 15.945312-3.125 9.503907-11.949218 15.972657-21.953125 16.089844zm44.558594-24c13.253906 0 24 10.742188 24 24 0 13.253906-10.746094 24-24 24s-24-10.746094-24-24c0-13.257812 10.746094-24 24-24zm0 0"/><path d="m88.015625 80.035156h-56v336h93.914063l19.199218-128h112.800782l6.878906-64h23.207031v-16c-.011719-16.976562 6.726563-33.261718 18.738281-45.257812 4.242188-4.226563 9.054688-7.84375 14.292969-10.742188h-1.03125v-72h-56c0 8.835938-7.164063 16-16 16h-144c-8.835937 0-16-7.164062-16-16zm40 320h-80v-80h80zm0-156.691406v60.691406h-80v-80h76.6875l17.65625-17.65625 11.3125 11.308594zm32-99.308594h80v16h-80zm0 32h80v16h-80zm0 72h80v16h-80zm-35.3125-120 17.65625-17.65625 11.3125 11.308594-25.65625 25.65625v60.691406h-80v-80zm0 0"/><path d="m8.015625 448.035156h113.113281l2.398438-16h-107.511719v-368h72v-16h-80c-4.417969 0-8 3.578125-8 8v384c0 4.417969 3.582031 8 8 8zm0 0"/><path d="m184.015625 32.035156c0 4.417969-3.582031 8-8 8s-8-3.582031-8-8c0-4.421875 3.582031-8 8-8s8 3.578125 8 8zm0 0"/><path d="m112.015625 163.34375-24 24-21.65625-21.65625 11.3125-11.308594 10.34375 10.34375 20.6875-20.6875h-44.6875v48h48zm0 0"/><path d="m158.90625 304.035156-21.601562 144h157.425781l-21.601563-144zm97.109375 32c0 22.089844-17.90625 40-40 40-22.089844 0-40-17.910156-40-40v-16h16v16c0 13.253906 10.746094 24 24 24s24-10.746094 24-24v-16h16zm0 0"/><path d="m352.015625 160.035156c-5.453125.007813-10.863281.945313-16 2.773438v61.226562h16zm0 0"/><path d="m318.074219 174.089844c-9.019531 8.992187-14.078125 21.207031-14.058594 33.945312v16h16v-51.714844c-.648437.585938-1.320313 1.144532-1.941406 1.769532zm0 0"/><path d="m447.113281 448.035156-22.28125-208h-8.816406v24h-16v-24h-96v24h-16v-24h-8.816406l-5.160157 48h12.867188l24 160zm0 0"/><path d="m413.359375 189.753906c-7.957031-27.21875-32.984375-45.871094-61.34375-45.71875v16c21.265625-.117187 40.039063 13.867188 46.007813 34.277344l7.671874-2.277344-7.664062 2.308594c1.332031 4.441406 2 9.054688 1.984375 13.691406v32h16v-32c.011719-6.191406-.882813-12.351562-2.65625-18.28125zm0 0"/><path d="m344.015625 48.035156h-80v16h72v82.078125c5.226563-1.363281 10.601563-2.0625 16-2.078125v-88c0-4.421875-3.582031-8-8-8zm0 0"/></svg>