<svg id="Layer_35" enable-background="new 0 0 64 64" height="512" viewBox="0 0 64 64" width="512" xmlns="http://www.w3.org/2000/svg"><path d="m51 3h-48v6h48zm-44 4h-2v-2h2zm4 0h-2v-2h2zm4 0h-2v-2h2z"/><circle cx="52" cy="18" r="5"/><path d="m48.524 25.7 3.476 4.633 3.476-4.634c-1.07-.449-2.244-.699-3.476-.699s-2.406.25-3.476.7z"/><path d="m11 29h8v10h-8z"/><path d="m37 25h-30v18h30zm-16 16h-12v-14h12zm14 0h-12v-2h12zm0-4h-12v-2h12zm0-4h-12v-2h12zm0-4h-12v-2h12z"/><path d="m41 41v-7c0-4.663 2.921-8.647 7.025-10.245-1.825-1.265-3.025-3.371-3.025-5.755 0-3.519 2.614-6.432 6-6.92v-.08h-48v36h43v-2h-1c-2.206 0-4-1.794-4-4zm-32-28h18v2h-18zm-4 0h2v2h-2zm0 4h22v2h-22zm34 28h-34v-22h34z"/><path d="m57.232 26.691-5.232 6.976-5.232-6.976c-2.277 1.635-3.768 4.298-3.768 7.309v7c0 1.103.897 2 2 2h1v-12h2v28.5c0 .827.673 1.5 1.5 1.5s1.5-.673 1.5-1.5v-19.5h2v19.5c0 .827.673 1.5 1.5 1.5s1.5-.673 1.5-1.5v-28.5h2v12h1c1.103 0 2-.897 2-2v-7c0-3.011-1.491-5.674-3.768-7.309z"/></svg>