<svg id="Capa_1" enable-background="new 0 0 511.968 511.968" height="512" viewBox="0 0 511.968 511.968" width="512" xmlns="http://www.w3.org/2000/svg"><path d="m454.483 315.011s-60.085-46.786-61.741-47.323c-15.179-38.868-45.771-68.666-83.35-83.308 17.571-15.077 28.735-37.419 28.735-62.333 0-4.281-.334-8.585-.992-12.791.034-.07.071-.151-.002-.012l17.033-37.938c5.578-12.412 5.273-26.514-.839-38.691-6.542-13.036-18.815-22.401-33.672-25.693-41.654-9.229-85.688-9.23-127.342 0-14.856 3.292-27.129 12.657-33.672 25.692-6.111 12.177-6.417 26.28-.839 38.691l17.079 37.999.005-.001c-.108.458-.2.924-.266 1.399-.517 3.736-.779 7.552-.779 11.344 0 24.914 11.164 47.256 28.735 62.333-37.579 14.642-68.171 44.44-83.35 83.308-1.656.537-61.742 47.323-61.742 47.323-4.237 3.329-6.363 8.675-5.57 14.004s4.385 9.824 9.408 11.774l47.528 18.449v89.725c0 6.324 3.967 11.969 9.917 14.112l133.279 48.003c1.643.592 3.363.888 5.083.888s3.44-.296 5.083-.888l133.28-48.003c5.923-2.133 9.884-7.738 9.917-14.033l.483-90.883 44.751-17.371c5.023-1.95 8.615-6.444 9.409-11.774.794-5.327-1.332-10.673-5.569-14.002zm-254.846-223.808-14.471-32.196c-1.89-4.205-1.788-8.799.289-12.936 2.477-4.935 7.342-8.528 13.349-9.859 37.408-8.289 76.953-8.289 114.361 0 6.007 1.332 10.873 4.925 13.35 9.86 2.076 4.136 2.179 8.73.288 12.936l-14.471 32.196h-112.695zm108.482 30c0 28.751-23.384 52.986-52.136 52.986-28.751 0-52.135-24.235-52.135-52.986zm-52.135 83.164c39.72 0 75.819 19.954 97.118 51.806l-91.792-26.631c-2.708-.785-5.581-.792-8.293-.019l-94.302 26.889c21.277-31.989 57.451-52.045 97.269-52.045zm.957 109.856-84.361-30.57 84.514-24.098 82.996 24.079zm-130.372-15.333 100.213 36.314-31.593 25.37-98.479-38.228zm12.282 71.995 53.553 20.788c1.759.683 3.598 1.017 5.426 1.017 3.363 0 6.688-1.131 9.394-3.304l34.756-27.91v114.093l-103.129-37.144zm236.615 67.518-103.486 37.273v-113.515l32.568 27.065c4.189 3.482 9.938 4.418 15.015 2.447l56.268-21.842zm-58.531-77.89-30.355-25.227 98.856-36.367 29.82 23.426z"/><g style="fill:none;stroke:#000;stroke-width:30;stroke-linecap:round;stroke-linejoin:round;stroke-miterlimit:10"><path d=""/><path d=""/></g></svg>