<?xml version="1.0"?>
<svg xmlns="http://www.w3.org/2000/svg" id="Outline" viewBox="0 0 512 512" width="512" height="512"><path d="M493.9,485.4a8,8,0,0,0,2.069-6.1l-24-272A8,8,0,0,0,464,200H424V176a56,56,0,0,0-112,0v24H288V64a40.045,40.045,0,0,0-40-40H56A40.045,40.045,0,0,0,16,64V448a40.045,40.045,0,0,0,40,40H488A8,8,0,0,0,493.9,485.4ZM56,40H248a24.039,24.039,0,0,1,22.624,16H33.376A24.039,24.039,0,0,1,56,40ZM248,472H56a24.039,24.039,0,0,1-22.624-16H270.624A24.039,24.039,0,0,1,248,472Zm24-32H32V72H272Zm56-264a40,40,0,0,1,80,0v24H328ZM279.978,472A39.788,39.788,0,0,0,288,448V216h24v32a8,8,0,0,0,16,0V216h80v32a8,8,0,0,0,16,0V216h32.675l22.588,256Z"/><circle cx="320" cy="280" r="8"/><circle cx="416" cy="280" r="8"/><path d="M200,304H72a24,24,0,0,0,0,48H216a8,8,0,0,0,0-16h-9.376a23.923,23.923,0,0,0-.321-16.846,24,24,0,0,0,3.074-45.245l14.37-71.85L229.766,176H248a8,8,0,0,0,0-16H224a8,8,0,0,0-7.59,5.47L210.234,192H192a56,56,0,0,0-112,0H56a8,8,0,0,0-7.845,9.569l16,80A8,8,0,0,0,72,288H200a8,8,0,0,1,0,16ZM72,336a8,8,0,1,1,8-8A8.009,8.009,0,0,1,72,336Zm89.376,0H94.624a23.944,23.944,0,0,0,0-16h66.752a23.944,23.944,0,0,0,0,16ZM184,336a8,8,0,1,1,8-8A8.009,8.009,0,0,1,184,336ZM70.559,232l-4.8-24H82.341a55.824,55.824,0,0,0,8.065,16.454L91.161,232Zm8,40-4.8-24h19l2.4,24ZM128,272H111.24l-2.4-24H128Zm32.76,0H144V248h19.16ZM136,232a40,40,0,1,1,40-40A40.045,40.045,0,0,1,136,232Zm57.441,40h-16.6l2.4-24h19Zm8-40h-20.6l.755-7.546A55.824,55.824,0,0,0,189.659,208h16.582Z"/><path d="M146.343,178.343,128,196.687l-2.343-2.344a8,8,0,0,0-11.314,11.314l8,8a8,8,0,0,0,11.314,0l24-24a8,8,0,0,0-11.314-11.314Z"/><circle cx="248" cy="344" r="8"/></svg>
