<?xml version="1.0" encoding="utf-8"?>
<!-- Generator: Adobe Illustrator 24.0.1, SVG Export Plug-In . SVG Version: 6.00 Build 0)  -->
<svg version="1.1" id="Capa_1" xmlns="http://www.w3.org/2000/svg" xmlns:xlink="http://www.w3.org/1999/xlink" x="0px" y="0px"
	 viewBox="0 0 512 512" style="enable-background:new 0 0 512 512;" xml:space="preserve">
<style type="text/css">
	.st0{fill:#634990;}
</style>
<g>
	<path class="st0" d="M486,120h-39.9L353,26.9l-82.5,82.5V0h-135v57.5h15V15h105v15H203v15h52.5v15H223v15h32.5v45h-105V72.5h-15
		V120h-25.2l-2.5-19.1C106,86.7,96.5,75,83,70.3l-17.7-6.2c0.1-1.2,0.2-2.4,0.2-3.6C65.5,42.6,50.9,28,33,28S0.5,42.6,0.5,60.5
		S15.1,93,33,93c11.4,0,21.4-5.9,27.2-14.8L78,84.5c8.1,2.8,13.8,9.9,14.9,18.4L126.2,361L104,401.1c-4.8,8.6-4.7,18.8,0.3,27.3
		c5,8.5,13.9,13.6,23.7,13.6h16.6c-6.3,7.4-10.1,17-10.1,27.5c0,23.4,19.1,42.5,42.5,42.5s42.5-19.1,42.5-42.5
		c0-10.5-3.8-20.1-10.1-27.5h185.3c-6.3,7.4-10.1,17-10.1,27.5c0,23.4,19.1,42.5,42.5,42.5s42.5-19.1,42.5-42.5
		c0-10.5-3.8-20.1-10.1-27.5H483v-15H128c-4.5,0-8.5-2.3-10.8-6.2s-2.3-8.5-0.2-12.4l21.3-38.4h185.7v-15h-26.7v-48h75v48h-33.3v15
		h113l40.2-199.8c11-2.8,19.2-12.8,19.2-24.7C511.5,131.4,500.1,120,486,120L486,120z M33,78c-9.6,0-17.5-7.9-17.5-17.5
		S23.4,43,33,43s17.5,7.9,17.5,17.5S42.6,78,33,78z M427,442c15.2,0,27.5,12.3,27.5,27.5S442.2,497,427,497s-27.5-12.3-27.5-27.5
		S411.8,442,427,442z M177,442c15.2,0,27.5,12.3,27.5,27.5S192.2,497,177,497s-27.5-12.3-27.5-27.5S161.8,442,177,442z M192.5,355
		h-51.9l-6.2-48h58.1V355z M192.5,292h-60l-7.1-55h67.1V292z M192.5,222h-69.1l-6.6-51h75.6V222z M282.5,355h-75v-48h75V355z
		 M282.5,292h-75v-55h75V292z M372.5,292h-75v-55h75V292z M372.5,222h-75v-51h75V222z M439.9,355h-52.4v-48h62L439.9,355z
		 M452.5,292h-65v-55h76.1L452.5,292z M473.8,186H436v15h34.8l-4.2,21h-79.1v-51h89.3L473.8,186z M486,156H249.9v15h32.6v51h-75v-51
		h27.4v-15h-120l-2.7-21h241.5v-15h-72.6L353,48.1l71.9,71.9h-56.2v15H486c5.8,0,10.5,4.7,10.5,10.5S491.8,156,486,156L486,156z"/>
	<path class="st0" d="M169.5,462h15v15h-15V462z"/>
	<path class="st0" d="M419.5,462h15v15h-15V462z"/>
	<path class="st0" d="M173,30h15v15h-15V30z"/>
	<path class="st0" d="M406,186h15v15h-15V186z"/>
</g>
</svg>
