<svg height="423pt" viewBox="-27 0 423 423.96475" width="423pt" xmlns="http://www.w3.org/2000/svg"><path d="m144.480469 359.964844h64v24h-64zm0 0"/><path d="m64.480469 359.964844h64v24h-64zm0 0"/><path d="m144.480469 399.964844h64v24h-64zm0 0"/><path d="m224.480469 359.964844h64v24h-64zm0 0"/><path d="m144.480469 319.964844h64v24h-64zm0 0"/><path d="m224.480469 399.964844h64v24h-64zm0 0"/><path d="m312.480469 63.964844h-96v16h96zm0 0"/><path d="m230.722656 47.964844h67.519532l9.863281-39.464844c.527343-2.046875.078125-4.226562-1.222657-5.894531-2.355468-2.90625-6.574218-3.457031-9.601562-1.257813l-28 21.015625c-2.84375 2.136719-6.753906 2.136719-9.597656 0l-28-21.023437c-3.027344-2.195313-7.246094-1.640625-9.601563 1.265625-1.3125 1.664062-1.773437 3.839843-1.253906 5.894531zm0 0"/><path d="m70.722656 47.964844h67.519532l9.863281-39.464844c.527343-2.046875.078125-4.226562-1.222657-5.894531-2.359374-2.902344-6.574218-3.453125-9.601562-1.257813l-28 21.015625c-2.84375 2.136719-6.753906 2.136719-9.597656 0l-28-21.023437c-3.027344-2.195313-7.246094-1.640625-9.601563 1.265625-1.3125 1.664062-1.773437 3.839843-1.253906 5.894531zm0 0"/><path d="m152.480469 63.964844h-96v16h96zm0 0"/><path d="m64.480469 399.964844h64v24h-64zm0 0"/><path d="m304.480469 399.964844h64v24h-64zm0 0"/><path d="m304.480469 199.964844h64v24h-64zm0 0"/><path d="m304.480469 279.964844h64v24h-64zm0 0"/><path d="m224.480469 319.964844h64v24h-64zm0 0"/><path d="m331.601562 105.765625-13.6875-9.800781h-106.863281l-13.671875 9.792968c-.351562.246094-.632812.527344-.976562.800782 17.96875 19.210937 28 44.507812 28.078125 70.8125v70.59375h-16v-70.59375c-.027344-28.414063-13.742188-55.070313-36.847657-71.613282l-13.710937-9.792968h-106.878906l-13.710938 9.792968c-23.105469 16.542969-36.820312 43.199219-36.851562 71.613282v190.59375c.054687 27.804687 20.484375 51.367187 48 55.359375v-71.359375c0-4.417969 3.582031-8 8-8h72v-32c0-4.417969 3.582031-8 8-8h72v-32c0-4.417969 3.582031-8 8-8h72v-72c0-4.417969 3.582031-8 8-8h72v-6.558594c-.007813-28.433594-13.742188-55.113281-36.878907-71.640625zm-203.121093 126.199219h-16v-1.167969c-.007813-3.769531-3.058594-6.824219-6.832031-6.832031h-2.335938c-3.167969.003906-5.917969 2.183594-6.644531 5.265625-.726563 3.085937.765625 6.261719 3.597656 7.679687l15.59375 7.796875c8.320313 4.140625 13.289063 12.925781 12.542969 22.191407-.742188 9.265624-7.046875 17.144531-15.921875 19.90625v9.160156h-16v-9.160156c-9.488281-2.960938-15.960938-11.730469-16-21.671876v-1.167968h16v1.167968c.011719 3.769532 3.0625 6.824219 6.832031 6.832032h2.335938c3.171874-.003906 5.921874-2.183594 6.648437-5.265625.726563-3.085938-.765625-6.261719-3.597656-7.679688l-15.59375-7.796875c-8.320313-4.140625-13.289063-12.925781-12.542969-22.191406.742188-9.265625 7.042969-17.144531 15.917969-19.90625v-9.160156h16v9.160156c9.492187 2.960938 15.964843 11.730469 16 21.671875zm42.523437 60.457031-13.296875-8.914063c16.300781-24.410156 13.90625-56.785156-5.808593-78.53125-19.71875-21.746093-51.703126-27.292968-77.589844-13.453124-25.886719 13.84375-39.039063 43.519531-31.90625 71.996093 7.132812 28.472657 32.726562 48.445313 62.078125 48.445313 2.382812 0 4.761719-.132813 7.128906-.390625l1.746094 15.902343c-2.949219.324219-5.910157.488282-8.875.488282-36.695313-.003906-68.683594-24.972656-77.59375-60.570313-8.910157-35.597656 7.539062-72.695312 39.902343-89.988281 32.367188-17.292969 72.347657-10.351562 96.988282 16.84375 24.636718 27.191406 27.617187 67.664062 7.226562 98.171875zm0 0"/><path d="m304.480469 239.964844h64v24h-64zm0 0"/><path d="m304.480469 319.964844h64v24h-64zm0 0"/><path d="m224.480469 279.964844h64v24h-64zm0 0"/><path d="m304.480469 359.964844h64v24h-64zm0 0"/></svg>