<?xml version="1.0" encoding="utf-8"?>
<!-- Generator: Adobe Illustrator 24.0.1, SVG Export Plug-In . SVG Version: 6.00 Build 0)  -->
<svg version="1.1" id="Layer_1" xmlns="http://www.w3.org/2000/svg" xmlns:xlink="http://www.w3.org/1999/xlink" x="0px" y="0px"
	 viewBox="0 0 480 480" style="enable-background:new 0 0 480 480;" xml:space="preserve">
<style type="text/css">
	.st0{fill:#634990;}
</style>
<path class="st0" d="M402.5,312c-8.8-0.7-17.4,2.1-24,8l-47.4,43.4c-1.7,1.5-3.9,2.3-6.2,2.1l-16-1.4c-0.4-14.7-10.7-27.2-25-30.4
	v-7.5c13.3-4,21.6-17.1,19.6-30.8s-13.7-23.9-27.6-24c-6.6,0-12-5.4-12-12c0-6.6,5.4-12,12-12c3.3,0,6.4,1.4,8.7,3.8
	c2.3,2.4,3.5,5.6,3.3,8.9c0,4.4,3.6,8,8,8s8-3.6,8-8c0-12.4-8.2-23.2-20-26.8V224c0-4.4-3.6-8-8-8s-8,3.6-8,8v9.2
	c-13.3,4-21.6,17.1-19.6,30.8c2,13.7,13.7,23.9,27.6,24c6.6,0,12,5.4,12,12s-5.4,12-12,12s-12-5.4-12-12c0-4.4-3.6-8-8-8s-8,3.6-8,8
	c0,12.4,8.2,23.2,20,26.8v4.6l-64-11.3c-0.4-0.1-0.9-0.1-1.4,0h-32V312c0-4.4-3.6-8-8-8H120v-8c0-4.4-3.6-8-8-8H8c-4.4,0-8,3.6-8,8
	s3.6,8,8,8h96v160H8c-4.4,0-8,3.6-8,8s3.6,8,8,8h104c4.4,0,8-3.6,8-8v-8h42c4.4,0,8-3.6,8-8V336h31.6l78.4,13.8
	c8.5,1.7,14.1,9.7,12.7,18.2v0.5c-0.3,0.7-0.5,1.4-0.6,2.1c-2.6,7.4-10.2,11.8-17.8,10.4l-54.8-9.7c-4.4-0.8-8.5,2.1-9.3,6.5
	c-0.8,4.4,2.1,8.5,6.5,9.3l54.8,9.7c1.9,0.3,3.7,0.5,5.6,0.5c11.8,0,22.7-6.6,28.2-17l18.6,1.6c6.6,0.7,13.2-1.4,18.2-5.8l47.4-43.5
	c3.2-3.1,7.5-4.7,11.9-4.5c4.4,0.3,8.5,2.4,11.3,5.8c5.2,7.1,4.1,17.1-2.6,22.9l-70.4,64.6c-7.3,6.8-17,10.7-27,10.7H194
	c-4.4,0-8,3.6-8,8s3.6,8,8,8h118.6c14,0,27.5-5.3,37.8-14.7l70.4-64.6c13.1-11.4,14.9-31.2,4.1-44.8
	C419.5,316.9,411.3,312.6,402.5,312z M154,448h-34V320h34V448z"/>
<path class="st0" d="M64,416c4.4,0,8-3.6,8-8s-3.6-8-8-8c-13.3,0-24,10.7-24,24s10.7,24,24,24s24-10.7,24-24c0-4.4-3.6-8-8-8
	s-8,3.6-8,8s-3.6,8-8,8s-8-3.6-8-8S59.6,416,64,416z"/>
<path class="st0" d="M184,264v32c0,4.4,3.6,8,8,8s8-3.6,8-8v-32c0-39.8,32.2-72,72-72h8c39.8,0,72,32.2,72,72v44.6c0,4.4,3.6,8,8,8
	s8-3.6,8-8V280h24v8c0,4.4,3.6,8,8,8s8-3.6,8-8v-40h8c8.8,0,16-7.2,16-16v-16c0-8.8-7.2-16-16-16h-32c-8.8,0-16,7.2-16,16v16h-6
	c-6.9-17.6-19.3-32.5-35.3-42.6c8.7-4.4,13.9-13.6,13.1-23.4c-0.8-9.7-7.4-18-16.7-20.9c5.7-7.1,8.9-16,8.9-25.1V88
	c0-13.3-10.7-24-24-24c-5.9,0-11.6,2.2-16,6.2c-9.1-8.1-22.9-8.1-32,0c-4.4-4-10.1-6.1-16-6.2c-13.3,0-24,10.7-24,24v32
	c0,9.1,3.1,18,8.9,25.1c-9.3,2.9-15.9,11.2-16.7,20.9c-0.8,9.7,4.4,19,13.1,23.4C199.6,205.5,184,233.7,184,264z M384,216h32v16h-32
	V216z M368,248h24v16h-24V248z M236,88c0-4.4,3.6-8,8-8s8,3.6,8,8s3.6,8,8,8s8-3.6,8-8s3.6-8,8-8s8,3.6,8,8s3.6,8,8,8s8-3.6,8-8
	s3.6-8,8-8s8,3.6,8,8v32c0,13.3-10.7,24-24,24h-32c-13.3,0-24-10.7-24-24V88z M236,176c-4.4,0-8-3.6-8-8s3.6-8,8-8h80
	c4.4,0,8,3.6,8,8s-3.6,8-8,8H236z"/>
<path class="st0" d="M478.4,91.2l-48-64c-1.5-2-3.9-3.2-6.4-3.2s-4.9,1.2-6.4,3.2l-48,64c-1.8,2.4-2.1,5.7-0.8,8.4s4.1,4.4,7.2,4.4
	h16v40c0,4.4,3.6,8,8,8s8-3.6,8-8V96c0-4.4-3.6-8-8-8h-8l32-42.6L456,88h-8c-4.4,0-8,3.6-8,8v48c0,4.4,3.6,8,8,8s8-3.6,8-8v-40h16
	c3,0,5.8-1.7,7.2-4.4S480.2,93.6,478.4,91.2z"/>
<path class="st0" d="M40,112h32v72c0,4.4,3.6,8,8,8s8-3.6,8-8v-80c0-4.4-3.6-8-8-8H56l56-74.6L168,96h-24c-4.4,0-8,3.6-8,8v80
	c0,4.4,3.6,8,8,8s8-3.6,8-8v-72h32c3,0,5.8-1.7,7.2-4.4s1.1-6-0.8-8.4l-72-96c-1.5-2-3.9-3.2-6.4-3.2s-4.9,1.2-6.4,3.2l-72,96
	c-1.8,2.4-2.1,5.7-0.8,8.4S37,112,40,112z"/>
<path class="st0" d="M104,128v96c0,4.4,3.6,8,8,8s8-3.6,8-8v-96c0-4.4-3.6-8-8-8S104,123.6,104,128z"/>
</svg>
