<svg height="464pt" viewBox="0 -4 464.00004 464" width="464pt" xmlns="http://www.w3.org/2000/svg"><path d="m104 456h320c4.417969 0 8-3.582031 8-8v-240c0-4.417969-3.582031-8-8-8h-80c-4.417969 0-8 3.582031-8 8v72h-72c-4.417969 0-8 3.582031-8 8v32h-72c-4.417969 0-8 3.582031-8 8v32h-72c-4.417969 0-8 3.582031-8 8v80c0 4.417969 3.582031 8 8 8zm8-40h64v24h-64zm80-40h64v24h-64zm80-40h64v24h-64zm80-40h64v24h-64zm0-16v-24h64v24zm64 56v24h-64v-24zm0 40v24h-64v-24zm-80 0v24h-64v-24zm0 40v24h-64v-24zm-80 0v24h-64v-24zm96 24v-24h64v24zm64-224v24h-64v-24zm-80 80v24h-64v-24zm-80 40v24h-64v-24zm-80 40v24h-64v-24zm0 0"/><path d="m16 193.40625c-.015625-24.621094 7.574219-48.648438 21.726562-68.796875l-13.109374-9.191406c-16.042969 22.839843-24.6406255 50.078125-24.617188 77.988281v62.59375h16zm0 0"/><path d="m0 272h16v16h-16zm0 0"/><path d="m77 450.761719 6-14.832031c-21.195312-8.515626-35.0625-29.089844-35-51.929688v-190.59375c.027344-28.414062 13.746094-55.070312 36.847656-71.613281l13.710938-9.792969h106.882812l13.710938 9.792969c23.101562 16.542969 36.820312 43.199219 36.847656 71.613281v70.59375h16v-70.59375c-.042969-33.570312-16.253906-65.066406-43.550781-84.605469l-12.449219-8.914062v-27.886719c0-4.417969-3.582031-8-8-8h-5.761719l8.90625-35.582031c1.703125-6.835938.167969-14.070313-4.167969-19.621094-4.335937-5.550781-10.984374-8.79296875-18.023437-8.796875-4.945313.015625-9.757813 1.617188-13.722656 4.574219l-23.230469 17.425781-23.199219-17.433594c-3.976562-2.957031-8.796875-4.5585935-13.753906-4.566406-7.039063.00390625-13.6875 3.246094-18.023437 8.796875-4.332032 5.550781-5.871094 12.785156-4.167969 19.621094l8.90625 35.582031h-5.761719c-4.417969 0-8 3.582031-8 8v27.886719l-12.449219 8.914062c-27.296875 19.539063-43.507812 51.035157-43.550781 84.605469v190.59375c-.085938 29.367188 17.746094 55.820312 45 66.761719zm27-354.761719v-16h96v16zm4.375-71.464844c-.527344-2.046875-.074219-4.226562 1.226562-5.894531 2.355469-2.90625 6.570313-3.460937 9.597657-1.265625l28 21.023438c2.84375 2.136718 6.757812 2.136718 9.601562 0l28-21.015626c3.023438-2.195312 7.242188-1.644531 9.597657 1.257813 1.3125 1.664063 1.777343 3.839844 1.257812 5.894531l-9.894531 39.464844h-67.523438zm0 0"/><path d="m248 72v32c0 4.417969 3.582031 8 8 8h109.441406l13.710938 9.792969c20.664062 14.761719 33.941406 37.734375 36.421875 63.007812l15.921875-1.601562c-2.949219-29.847657-18.640625-56.964844-43.046875-74.398438l-12.449219-8.914062v-27.886719c0-4.417969-3.582031-8-8-8h-5.761719l8.90625-35.582031c1.703125-6.835938.167969-14.070313-4.167969-19.621094-4.335937-5.550781-10.984374-8.79296875-18.023437-8.796875-4.945313.015625-9.757813 1.617188-13.722656 4.574219l-23.230469 17.425781-23.199219-17.433594c-3.976562-2.957031-8.796875-4.5585935-13.753906-4.566406-7.039063.00390625-13.6875 3.246094-18.023437 8.796875-4.332032 5.550781-5.871094 12.785156-4.167969 19.621094l8.90625 35.582031h-5.761719c-4.417969 0-8 3.582031-8 8zm16 24v-16h96v16zm4.375-71.464844c-.527344-2.046875-.074219-4.226562 1.226562-5.894531 2.355469-2.90625 6.570313-3.460937 9.597657-1.265625l28 21.023438c2.84375 2.136718 6.757812 2.136718 9.601562 0l28-21.015626c3.023438-2.199218 7.242188-1.648437 9.597657 1.257813 1.3125 1.664063 1.777343 3.839844 1.257812 5.894531l-9.894531 39.464844h-67.523438zm0 0"/><path d="m176 248v-1.167969c-.035156-9.941406-6.511719-18.710937-16-21.671875v-9.160156h-16v9.160156c-8.875 2.761719-15.179688 10.640625-15.921875 19.90625s4.222656 18.050782 12.546875 22.191406l15.589844 7.796876c2.835937 1.417968 4.324218 4.59375 3.597656 7.679687-.726562 3.082031-3.476562 5.261719-6.644531 5.265625h-2.335938c-3.769531-.007812-6.824219-3.0625-6.832031-6.832031v-1.167969h-16v1.167969c.035156 9.941406 6.511719 18.710937 16 21.671875v9.160156h16v-9.160156c8.875-2.761719 15.179688-10.640625 15.921875-19.90625s-4.222656-18.050782-12.546875-22.191406l-15.589844-7.796876c-2.835937-1.417968-4.324218-4.59375-3.597656-7.679687.726562-3.082031 3.476562-5.261719 6.644531-5.265625h2.335938c3.769531.007812 6.824219 3.0625 6.832031 6.832031v1.167969zm0 0"/><path d="m152 344c2.964844 0 5.925781-.164062 8.871094-.488281l-1.742188-15.902344c-2.367187.257813-4.746094.390625-7.128906.390625-29.355469 0-54.945312-19.972656-62.078125-48.445312-7.136719-28.476563 6.015625-58.152344 31.90625-71.996094 25.886719-13.839844 57.871094-8.292969 77.585937 13.453125 19.71875 21.746093 22.113282 54.121093 5.808594 78.53125l13.296875 8.914062c20.390625-30.507812 17.414063-70.980469-7.226562-98.171875-24.640625-27.195312-64.621094-34.136718-96.984375-16.84375-32.367188 17.292969-48.816406 54.390625-39.902344 89.988282 8.910156 35.597656 40.898438 60.566406 77.59375 60.570312zm0 0"/><path d="m448 272h16v152h-16zm0 0"/></svg>